<svg version="1.1" xmlns="http://www.w3.org/2000/svg" width="30" viewBox="0 0 27 32">  <defs>
                                    <linearGradient id="Gradient" x1="0" y1="0" x2="100%" y2="0">
                                        <stop offset="0%" stop-color="#7df442"></stop>
                                        <stop offset="100%" stop-color="#a5ed8b"></stop>
                                    </linearGradient>
                                </defs><path fill="url(#Gradient)" d="M2.594 0.275c-0.257-0.166-0.571-0.265-0.908-0.265-0.932 0-1.688 0.756-1.688 1.688 0 0.028 0.001 0.055 0.002 0.082l-0-0.004v13.246l16.702-6.219zM26.030 14.49l-4.184-2.541-21.846 8.102v10.154c-0.001 0.024-0.002 0.051-0.002 0.079 0 0.927 0.752 1.679 1.679 1.679 0.319 0 0.617-0.089 0.871-0.243l-0.007 0.004c1.501-0.888 22.21-13.433 23.489-14.214 0.52-0.316 0.863-0.88 0.863-1.524s-0.342-1.207-0.855-1.519l-0.008-0.004z"></path></svg>